{
  "source": "C:\\Users\\Peter\\Desktop\\stuff\\MIUN\\quantitative_research\\video_compression\\videos\\HEVC_CLASS_B\\Cactus_1920x1080_50.y4m",
  "output": "C:\\Users\\Peter\\Desktop\\stuff\\MIUN\\quantitative_research\\video_compression\\compressed_videos\\HEVC_CLASS_B\\h264\\3\\Cactus_1920x1080_50_h264.mp4",
  "codec": "h264",
  "ok": "Input #0, yuv4mpegpipe, from 'C:\\Users\\Peter\\Desktop\\stuff\\MIUN\\quantitative_research\\video_compression\\videos\\HEVC_CLASS_B\\Cactus_1920x1080_50.y4m':\n  Duration: 00:00:10.00, start: 0.000000, bitrate: 1244162 kb/s\n  Stream #0:0: Video: rawvideo (I420 / 0x30323449), yuv420p(progressive), 1920x1080, 50 fps, 50 tbr, 50 tbn\n[out#0/mp4 @ 0000027dd0bd9880] Codec AVOption b:a (set bitrate (in bits/s)) has not been used for any stream. The most likely reason is either wrong type (e.g. a video option with no video streams) or that it is a private option of some decoder which was not actually used for any stream.\nStream mapping:\n  Stream #0:0 -> #0:0 (rawvideo (native) -> h264 (libx264))\nPress [q] to stop, [?] for help\n[libx264 @ 0000027dd0bdc8c0] using cpu capabilities: MMX2 SSE2Fast SSSE3 SSE4.2 AVX FMA3 BMI2 AVX2\n[libx264 @ 0000027dd0bdc8c0] profile High, level 5.0, 4:2:0, 8-bit\n[libx264 @ 0000027dd0bdc8c0] 264 - core 165 r3222 b35605a - H.264/MPEG-4 AVC codec - Copyleft 2003-2025 - http://www.videolan.org/x264.html - options: cabac=1 ref=5 deblock=1:0:0 analyse=0x3:0x113 me=hex subme=8 psy=1 psy_rd=1.00:0.00 mixed_ref=1 me_range=16 chroma_me=1 trellis=2 8x8dct=1 cqm=0 deadzone=21,11 fast_pskip=1 chroma_qp_offset=-2 threads=18 lookahead_threads=3 sliced_threads=0 nr=0 decimate=1 interlaced=0 bluray_compat=0 constrained_intra=0 bframes=3 b_pyramid=2 b_adapt=1 b_bias=0 direct=3 weightb=1 open_gop=0 weightp=2 keyint=250 keyint_min=25 scenecut=40 intra_refresh=0 rc_lookahead=50 rc=cbr mbtree=1 bitrate=3000 ratetol=1.0 qcomp=0.60 qpmin=0 qpmax=69 qpstep=4 vbv_maxrate=3000 vbv_bufsize=3000 nal_hrd=none filler=0 ip_ratio=1.40 aq=1:1.00\nOutput #0, mp4, to 'C:\\Users\\Peter\\Desktop\\stuff\\MIUN\\quantitative_research\\video_compression\\compressed_videos\\HEVC_CLASS_B\\h264\\3\\Cactus_1920x1080_50_h264.mp4':\n  Metadata:\n    encoder         : Lavf62.3.100\n  Stream #0:0: Video: h264 (avc1 / 0x31637661), yuv420p(tv, progressive), 1920x1080, q=2-31, 3000 kb/s, 50 fps, 12800 tbn\n    Metadata:\n      encoder         : Lavc62.11.100 libx264\n    Side data:\n      cpb: bitrate max/min/avg: 3000000/0/3000000 buffer size: 3000000 vbv_delay: N/A\nframe=    0 fps=0.0 q=0.0 size=       0KiB time=N/A bitrate=N/A speed=N/A elapsed=0:00:00.52    \nframe=   10 fps=9.5 q=41.0 size=       0KiB time=00:00:00.12 bitrate=   3.2kbits/s speed=0.114x elapsed=0:00:01.05    \nframe=   37 fps= 23 q=39.0 size=       0KiB time=00:00:00.68 bitrate=   0.6kbits/s speed=0.425x elapsed=0:00:01.59    \nframe=   69 fps= 32 q=39.0 size=     256KiB time=00:00:01.32 bitrate=1589.0kbits/s speed=0.614x elapsed=0:00:02.15    \nframe=  100 fps= 37 q=39.0 size=     512KiB time=00:00:01.92 bitrate=2184.7kbits/s speed=0.717x elapsed=0:00:02.67    \nframe=  133 fps= 41 q=38.0 size=     768KiB time=00:00:02.60 bitrate=2419.9kbits/s speed=0.807x elapsed=0:00:03.22    \nframe=  160 fps= 43 q=38.0 size=     768KiB time=00:00:03.16 bitrate=1991.1kbits/s speed=0.842x elapsed=0:00:03.75    \nframe=  189 fps= 44 q=38.0 size=    1024KiB time=00:00:03.72 bitrate=2255.1kbits/s speed=0.871x elapsed=0:00:04.27    \nframe=  217 fps= 45 q=38.0 size=    1280KiB time=00:00:04.28 bitrate=2450.0kbits/s speed=0.882x elapsed=0:00:04.85    \nframe=  233 fps= 43 q=38.0 size=    1280KiB time=00:00:04.62 bitrate=2269.7kbits/s speed=0.854x elapsed=0:00:05.41    \nframe=  255 fps= 43 q=38.0 size=    1536KiB time=00:00:05.06 bitrate=2486.8kbits/s speed=0.851x elapsed=0:00:05.94    \nframe=  285 fps= 44 q=38.0 size=    1792KiB time=00:00:05.54 bitrate=2649.9kbits/s speed=0.857x elapsed=0:00:06.46    \nframe=  318 fps= 45 q=38.0 size=    2048KiB time=00:00:06.26 bitrate=2680.1kbits/s speed=0.894x elapsed=0:00:07.00    \nframe=  347 fps= 46 q=38.0 size=    2048KiB time=00:00:06.90 bitrate=2431.5kbits/s speed=0.912x elapsed=0:00:07.56    \nframe=  378 fps= 47 q=38.0 size=    2304KiB time=00:00:07.48 bitrate=2523.4kbits/s speed=0.922x elapsed=0:00:08.11    \nframe=  410 fps= 47 q=38.0 size=    2560KiB time=00:00:08.06 bitrate=2602.0kbits/s speed=0.933x elapsed=0:00:08.63    \nframe=  443 fps= 48 q=38.0 size=    2816KiB time=00:00:08.78 bitrate=2627.5kbits/s speed=0.955x elapsed=0:00:09.19    \nframe=  471 fps= 48 q=36.0 size=    3072KiB time=00:00:09.38 bitrate=2683.0kbits/s speed=0.963x elapsed=0:00:09.73    \n[mp4 @ 0000027dd0bd9980] Starting second pass: moving the moov atom to the beginning of the file\n[out#0/mp4 @ 0000027dd0bd9880] video:3326KiB audio:0KiB subtitle:0KiB other streams:0KiB global headers:0KiB muxing overhead: 0.202708%\nframe=  500 fps= 49 q=-1.0 Lsize=    3332KiB time=00:00:09.96 bitrate=2740.8kbits/s speed=0.976x elapsed=0:00:10.20    \n[libx264 @ 0000027dd0bdc8c0] frame I:2     Avg QP:34.49  size: 79663\n[libx264 @ 0000027dd0bdc8c0] frame P:126   Avg QP:36.34  size: 15172\n[libx264 @ 0000027dd0bdc8c0] frame B:372   Avg QP:40.36  size:  3585\n[libx264 @ 0000027dd0bdc8c0] consecutive B-frames:  0.8%  0.0%  0.0% 99.2%\n[libx264 @ 0000027dd0bdc8c0] mb I  I16..4: 24.3% 61.6% 14.1%\n[libx264 @ 0000027dd0bdc8c0] mb P  I16..4:  1.5%  3.1%  0.2%  P16..4: 27.3%  6.2%  4.8%  0.0%  0.0%    skip:57.0%\n[libx264 @ 0000027dd0bdc8c0] mb B  I16..4:  0.1%  0.2%  0.0%  B16..8: 24.9%  1.2%  0.2%  direct: 0.5%  skip:72.9%  L0:38.6% L1:60.0% BI: 1.4%\n[libx264 @ 0000027dd0bdc8c0] 8x8 transform intra:64.5% inter:84.1%\n[libx264 @ 0000027dd0bdc8c0] direct mvs  spatial:97.3% temporal:2.7%\n[libx264 @ 0000027dd0bdc8c0] coded y,uvDC,uvAC intra: 40.9% 47.0% 13.2% inter: 3.9% 3.6% 0.1%\n[libx264 @ 0000027dd0bdc8c0] i16 v,h,dc,p: 21% 24%  4% 51%\n[libx264 @ 0000027dd0bdc8c0] i8 v,h,dc,ddl,ddr,vr,hd,vl,hu:  7%  4%  5% 13% 19% 16% 15% 12%  9%\n[libx264 @ 0000027dd0bdc8c0] i4 v,h,dc,ddl,ddr,vr,hd,vl,hu: 10%  7%  6% 12% 17% 15% 12% 10% 12%\n[libx264 @ 0000027dd0bdc8c0] i8c dc,h,v,p: 40% 24% 16% 19%\n[libx264 @ 0000027dd0bdc8c0] Weighted P-Frames: Y:0.0% UV:0.0%\n[libx264 @ 0000027dd0bdc8c0] ref P L0: 59.0% 14.6% 15.7%  4.6%  6.1%\n[libx264 @ 0000027dd0bdc8c0] ref B L0: 88.6%  7.7%  2.7%  1.0%\n[libx264 @ 0000027dd0bdc8c0] ref B L1: 97.2%  2.8%\n[libx264 @ 0000027dd0bdc8c0] kb/s:2723.70\n",
  "seconds": 10.386052131652832,
  "probe_out": {}
}